<?xml version="1.0" encoding="UTF-8"?>
<svg width="30px" height="30px" viewBox="0 0 30 30" version="1.1" xmlns="http://www.w3.org/2000/svg" xmlns:xlink="http://www.w3.org/1999/xlink">
    <!-- Generator: Sketch 47.1 (45422) - http://www.bohemiancoding.com/sketch -->
    <title>social/LinkedIN</title>
    <desc>Created with Sketch.</desc>
    <defs></defs>
    <g id="Symbols" stroke="none" stroke-width="1" fill="none" fill-rule="evenodd">
        <g id="social/LinkedIN">
            <g id="LinkedIN">
                <path d="M0,15 C0,6.71572834 6.71572834,0 15,0 C23.2842717,0 30,6.71572834 30,15 C30,23.2842717 23.2842717,30 15,30 C6.71572834,30 0,23.2842717 0,15 Z" id="back" fill="#0077B5"></path>
                <path d="M10.6003387,12.4236552 L10.6003387,22.6372248 L7.20101071,22.6372248 L7.20101071,12.4236552 L10.6003387,12.4236552 Z M10.8242271,9.26418606 C10.8242271,10.2448769 10.0860337,11.0295923 8.90074261,11.0295923 L8.87901906,11.0295923 C7.73778602,11.0295923 7,10.2448769 7,9.26418606 C7,8.26275203 7.76025631,7.5 8.92314502,7.5 C10.0860337,7.5 10.8021641,8.26275203 10.8242271,9.26418606 Z M22.859616,16.7810761 L22.8594802,22.6372248 L19.460288,22.6372248 L19.460288,17.1729593 C19.460288,15.8004531 18.9683854,14.8638923 17.7378142,14.8638923 C16.7986781,14.8638923 16.2392967,15.4952709 15.993617,16.1050929 C15.9037358,16.3236418 15.8816728,16.6281461 15.8816728,16.9333961 L15.8816728,22.637496 L12.4819375,22.637496 C12.4819375,22.637496 12.5267423,13.3823149 12.4819375,12.4239263 L15.8816728,12.4239263 L15.8816728,13.8705928 C16.3328437,13.1751544 17.1408919,12.1838208 18.9457114,12.1838208 C21.1826259,12.1838208 22.859616,13.6439093 22.859616,16.7810761 Z" id="Shape" fill="#FFFFFF"></path>
            </g>
        </g>
    </g>
</svg>