<?xml version="1.0" encoding="UTF-8"?>
<svg width="31px" height="30px" viewBox="0 0 31 30" version="1.1" xmlns="http://www.w3.org/2000/svg" xmlns:xlink="http://www.w3.org/1999/xlink">
    <!-- Generator: Sketch 47.1 (45422) - http://www.bohemiancoding.com/sketch -->
    <title>social/Slack Copy</title>
    <desc>Created with Sketch.</desc>
    <defs></defs>
    <g id="Symbols" stroke="none" stroke-width="1" fill="none" fill-rule="evenodd">
        <g id="social/Slack-Copy">
            <g id="Slack">
                <path d="M0,15 C0,6.71572834 6.72543315,0 15.0216763,0 C23.3179194,0 30.0433526,6.71572834 30.0433526,15 C30.0433526,23.2842717 23.3179194,30 15.0216763,30 C6.72543315,30 0,23.2842717 0,15 Z" id="back" fill="#FFFFFF"></path>
                <g id="Group" transform="translate(7.000000, 7.000000)">
                    <path d="M10.3727213,0.989901637 C10.1295738,0.241442623 9.3257705,-0.168131148 8.57744263,0.0751475412 C7.82898363,0.318295082 7.41940981,1.12209836 7.6626885,1.87042623 L11.3468853,13.2057705 C11.5998689,13.9049181 12.3551476,14.2978361 13.0801311,14.0891803 C13.8363279,13.8714754 14.2973115,13.0683279 14.056,12.3256394 C14.0468197,12.2973115 10.3727213,0.989901637 10.3727213,0.989901637" id="Shape" fill="#DFA22F"></path>
                    <path d="M4.66413115,2.84472131 C4.42085246,2.09639344 3.61704918,1.68681968 2.86872131,1.92996721 C2.12026229,2.17311476 1.71068853,2.97691803 1.95396721,3.72537705 L5.63816394,15.0607213 C5.89114754,15.7598689 6.64642625,16.1527869 7.37140981,15.944 C8.12760656,15.7264263 8.58859019,14.9232787 8.34727869,14.180459 C8.33809838,14.1522623 4.66413115,2.84472131 4.66413115,2.84472131" id="Shape" fill="#3CB187"></path>
                    <path d="M15.0100984,10.3778361 C15.7585574,10.1346885 16.168,9.33088525 15.9248524,8.58242625 C15.6817049,7.83409838 14.8779016,7.42452456 14.1295738,7.66767213 L2.79422951,11.352 C2.09508197,11.6048524 1.70216394,12.3601311 1.91081968,13.0851148 C2.12852459,13.8413115 2.93167213,14.3022951 3.67436066,14.0609836 C3.70268853,14.0518033 15.0100984,10.3778361 15.0100984,10.3778361" id="Shape" fill="#CE1E5B"></path>
                    <path d="M5.15672131,13.5794098 C5.89455738,13.3396721 6.84550819,13.0306885 7.86596719,12.6991476 C7.6262295,11.9613115 7.31724588,11.0102295 6.98557375,9.98963938 L4.27619672,10.8702951 L5.15672131,13.5794098" id="Shape" fill="#392538"></path>
                    <path d="M10.8654426,11.724459 C11.8897049,11.3917377 12.8417049,11.0823606 13.5746885,10.8441968 C13.3349508,10.1063606 13.0258361,9.15501638 12.6941639,8.13416394 L9.98478688,9.01481969 L10.8654426,11.724459" id="Shape" fill="#BB242A"></path>
                    <path d="M13.1552787,4.66911476 C13.9036066,4.42596721 14.3131803,3.62216394 14.0700328,2.87370492 C13.8268852,2.12537705 13.0230819,1.71580328 12.2746229,1.95895082 L0.939278687,5.64327869 C0.240131147,5.89613115 -0.152786885,6.65140981 0.056,7.37639344 C0.273573771,8.13259019 1.07672131,8.59357375 1.81954098,8.35226231 C1.84773771,8.34308194 13.1552787,4.66911476 13.1552787,4.66911476" id="Shape" fill="#72C5CD"></path>
                    <path d="M3.30137705,7.87081969 C4.03921311,7.63108194 4.99042623,7.32196719 6.01101639,6.99042625 C5.67829508,5.96603279 5.36891803,5.01403279 5.1307541,4.28091803 L2.42072131,5.16170492 L3.30137705,7.87081969" id="Shape" fill="#248C73"></path>
                    <path d="M9.00996719,6.016 C10.0344918,5.68314754 10.9866229,5.37377049 11.7197377,5.13547541 C11.3868852,4.11095082 11.0775082,3.15868853 10.8392131,2.42544263 L8.1293115,3.30622951 L9.00996719,6.016" id="Shape" fill="#62803A"></path>
                </g>
            </g>
        </g>
    </g>
</svg>