<?xml version="1.0" encoding="UTF-8"?>
<svg width="30px" height="30px" viewBox="0 0 30 30" version="1.1" xmlns="http://www.w3.org/2000/svg" xmlns:xlink="http://www.w3.org/1999/xlink">
    <!-- Generator: Sketch 47.1 (45422) - http://www.bohemiancoding.com/sketch -->
    <title>social/Facebook Copy</title>
    <desc>Created with Sketch.</desc>
    <defs></defs>
    <g id="Page-1" stroke="none" stroke-width="1" fill="none" fill-rule="evenodd">
        <g id="popup" transform="translate(-243.000000, -268.000000)">
            <g id="form" transform="translate(18.000000, 53.000000)">
                <g id="Group-2">
                    <g id="social" transform="translate(1.000000, 29.000000)">
                        <g id="Stacked-Group-2" transform="translate(28.000000, 186.000000)">
                            <g id="social/Wtsp" transform="translate(196.000000, 0.000000)">
                                <g id="Twitter" fill="#25D366">
                                    <path d="M0,15 C0,6.71572834 6.71572834,0 15,0 C23.2842717,0 30,6.71572834 30,15 C30,23.2842717 23.2842717,30 15,30 C6.71572834,30 0,23.2842717 0,15 Z" id="back"></path>
                                </g>
                                <g id="whatsapp-logo" transform="translate(6.000000, 6.000000)" fill="#FFFFFF">
                                    <path d="M18,8.7682 C18,13.6108 14.0442,17.5364 9.1636,17.5364 C7.6142,17.5364 6.1586,17.1404 4.8922,16.4454 L0,18 L1.595,13.2956 C0.7904,11.9744 0.327,10.4248 0.327,8.7682 C0.327,3.9256 4.2832,0 9.1636,0 C14.0446,0 18,3.9256 18,8.7682 Z M9.1636,1.3964 C5.0668,1.3964 1.7344,4.7034 1.7344,8.7682 C1.7344,10.3812 2.2602,11.875 3.1496,13.0902 L2.2214,15.828 L5.0764,14.9206 C6.2494,15.6908 7.6546,16.14 9.1638,16.14 C13.26,16.14 16.593,12.8334 16.593,8.7686 C16.593,4.7038 13.2602,1.3964 9.1636,1.3964 Z M13.6258,10.7876 C13.5712,10.6982 13.427,10.6442 13.2106,10.5368 C12.9938,10.4294 11.9286,9.9092 11.7306,9.8378 C11.532,9.7662 11.3872,9.7302 11.243,9.9452 C11.0988,10.1604 10.6836,10.6442 10.557,10.7876 C10.4306,10.9314 10.3044,10.9494 10.0876,10.8418 C9.8712,10.7344 9.1734,10.5072 8.346,9.7752 C7.7022,9.2056 7.2674,8.5024 7.141,8.287 C7.0148,8.072 7.1278,7.9558 7.236,7.8488 C7.3336,7.7524 7.4528,7.5978 7.561,7.4724 C7.6696,7.3468 7.7056,7.2574 7.7774,7.1138 C7.85,6.9704 7.8138,6.845 7.7594,6.7372 C7.7054,6.6298 7.2718,5.5722 7.0914,5.1418 C6.911,4.7118 6.7308,4.7834 6.6042,4.7834 C6.478,4.7834 6.3334,4.7654 6.189,4.7654 C6.0446,4.7654 5.8098,4.8192 5.6112,5.0342 C5.4128,5.2494 4.8534,5.7694 4.8534,6.8268 C4.8534,7.8844 5.6292,8.9062 5.7378,9.0494 C5.846,9.1926 7.2358,11.4334 9.4378,12.294 C11.64,13.1542 11.64,12.8672 12.0372,12.8312 C12.434,12.7954 13.3184,12.3114 13.4996,11.8098 C13.6796,11.3074 13.6796,10.8772 13.6258,10.7876 Z" id="WhatsApp" fill-rule="nonzero"></path>
                                </g>
                            </g>
                        </g>
                    </g>
                </g>
            </g>
        </g>
    </g>
</svg>