<?xml version="1.0" encoding="UTF-8"?>
<svg width="31px" height="30px" viewBox="0 0 31 30" version="1.1" xmlns="http://www.w3.org/2000/svg" xmlns:xlink="http://www.w3.org/1999/xlink">
    <!-- Generator: Sketch 47.1 (45422) - http://www.bohemiancoding.com/sketch -->
    <title>social/Ycombinator</title>
    <desc>Created with Sketch.</desc>
    <defs></defs>
    <g id="Symbols" stroke="none" stroke-width="1" fill="none" fill-rule="evenodd">
        <g id="social/Ycombinator">
            <g id="Slack">
                <path d="M0,15 C0,6.71572834 6.72543315,0 15.0216763,0 C23.3179194,0 30.0433526,6.71572834 30.0433526,15 C30.0433526,23.2842717 23.3179194,30 15.0216763,30 C6.72543315,30 0,23.2842717 0,15 Z" id="back" fill="#F86227"></path>
                <g id="ycombinator-logo" transform="translate(9.000000, 7.000000)" fill="#FFFFFE">
                    <path d="M0,0 L2.33584291,0 L5.34237721,6.11071116 C5.78191547,7.02052729 6.15199201,7.9066057 6.15199201,7.9066057 C6.15199201,7.9066057 6.54522247,7.04387586 7.00791463,6.11071116 L10.0611426,0 L12.2352941,0 L7.07699044,9.77254597 L7.07699044,16 L5.11160998,16 L5.11160998,9.65619224 L0,0" id="Fill-3"></path>
                </g>
            </g>
        </g>
    </g>
</svg>