<?xml version="1.0" encoding="UTF-8"?>
<svg width="31px" height="30px" viewBox="0 0 31 30" version="1.1" xmlns="http://www.w3.org/2000/svg" xmlns:xlink="http://www.w3.org/1999/xlink">
    <!-- Generator: Sketch 47.1 (45422) - http://www.bohemiancoding.com/sketch -->
    <title>social/Youtube</title>
    <desc>Created with Sketch.</desc>
    <defs></defs>
    <g id="Symbols" stroke="none" stroke-width="1" fill="none" fill-rule="evenodd">
        <g id="social/Youtube">
            <g id="Youtube">
                <path d="M0,15 C0,6.71572834 6.72543315,0 15.0216763,0 C23.3179194,0 30.0433526,6.71572834 30.0433526,15 C30.0433526,23.2842717 23.3179194,30 15.0216763,30 C6.72543315,30 0,23.2842717 0,15 Z" id="back" fill="#CE1312"></path>
                <path d="M22.84,11.9806727 C22.84,11.9806727 22.6835,10.8540232 22.204,10.3578887 C21.5955,9.70642467 20.9135,9.70335895 20.601,9.6655485 C18.362,9.5 15.0035,9.5 15.0035,9.5 L14.9965,9.5 C14.9965,9.5 11.638,9.5 9.399,9.6655485 C9.086,9.70335895 8.4045,9.70642467 7.7955,10.3578887 C7.316,10.8540232 7.16,11.9806727 7.16,11.9806727 C7.16,11.9806727 7,13.3040387 7,14.6268939 L7,15.8674857 C7,17.1908517 7.16,18.5137068 7.16,18.5137068 C7.16,18.5137068 7.316,19.6403563 7.7955,20.1364909 C8.4045,20.7879549 9.204,20.7675168 9.56,20.8354734 C10.84,20.9611676 15,21 15,21 C15,21 18.362,20.9948905 20.601,20.829342 C20.9135,20.7910206 21.5955,20.7879549 22.204,20.1364909 C22.6835,19.6403563 22.84,18.5137068 22.84,18.5137068 C22.84,18.5137068 23,17.1908517 23,15.8674857 L23,14.6268939 C23,13.3040387 22.84,11.9806727 22.84,11.9806727 L22.84,11.9806727 Z" fill="#FFFFFF"></path>
                <polygon id="Path" fill="#CE1312" points="13.348 17.3707069 13.3475 12.7767361 17.6705 15.0816413"></polygon>
            </g>
        </g>
    </g>
</svg>