<?xml version="1.0" encoding="UTF-8"?>
<svg width="165px" height="35px" viewBox="0 0 165 35" version="1.1" xmlns="http://www.w3.org/2000/svg" xmlns:xlink="http://www.w3.org/1999/xlink">
    <!-- Generator: Sketch 47.1 (45422) - http://www.bohemiancoding.com/sketch -->
    <title>cloudinary_logo_for_blue_bg</title>
    <desc>Created with Sketch.</desc>
    <defs></defs>
    <g id="Symbols" stroke="none" stroke-width="1" fill="none" fill-rule="evenodd">
        <g id="cloudinary_logo_for_blue_bg" fill-rule="nonzero">
            <g id="Group">
                <g>
                    <path d="M40.1490306,29.4814769 C39.5538571,29.4814769 38.999449,29.1047077 38.8037755,28.5109385 C38.5606224,27.7721846 38.9658776,26.9771538 39.7092449,26.7353538 C42.4021531,25.8587692 44.1421122,23.5113538 44.1421122,20.7552154 C44.1421122,17.2641385 41.2861429,14.4240615 37.7760102,14.4240615 C37.531898,14.4240615 37.2695612,14.4431385 36.9501531,14.4841538 L35.5655714,14.6625231 L35.3670204,13.2880308 C34.5167041,7.39469231 29.353898,2.95024615 23.3580408,2.95024615 C18.4014592,2.95024615 13.9892143,5.90096923 12.1173673,10.4679846 L11.7653469,11.3269231 L10.8330204,11.3440923 C6.54738776,11.4223077 3.06123469,14.9515385 3.06123469,19.2109385 C3.06123469,22.3204769 4.8764898,25.1557846 7.68593878,26.4344154 C8.39669388,26.7582462 8.70938776,27.5933385 8.3837449,28.3006154 C8.05810204,29.0074154 7.21833673,29.3178923 6.50758163,28.9950154 C2.69434694,27.2590154 0.22972449,23.4188308 0.22972449,19.2109385 C0.22972449,13.7353846 4.47219388,9.14881538 9.86088776,8.58556923 C12.3437347,3.42287692 17.5473061,0.134969231 23.3585204,0.134969231 C30.3135612,0.134969231 36.3592959,4.98384615 37.9270816,11.6097385 C42.9297041,11.6903385 46.974102,15.7618308 46.974102,20.7552154 C46.974102,24.6898308 44.4082857,28.1685077 40.5897755,29.4108923 C40.4439796,29.4585846 40.2953061,29.4814769 40.1490306,29.4814769 Z" id="Shape" fill="#FFFFFF"></path>
                    <path d="M18.515602,30.1358154 C18.515602,30.1358154 18.5151224,30.1358154 18.5151224,30.1353385 C18.5146429,30.1353385 18.5146429,30.1353385 18.5141633,30.1348615 L18.5141633,30.1348615 C18.5141633,30.1348615 18.5141633,30.1348615 18.5141633,30.1348615 L18.5136837,30.1348615 C18.5136837,30.1348615 18.5136837,30.1348615 18.5132041,30.1348615 L18.5132041,30.1348615 L18.5127245,30.1348615 C18.5127245,30.1348615 18.5122449,30.1348615 18.5122449,30.1348615 C18.5122449,30.1348615 18.5122449,30.1348615 18.5122449,30.1348615 L18.5117653,30.1348615 C18.5117653,30.1348615 18.5117653,30.1348615 18.5117653,30.1348615 C18.5117653,30.1353385 18.5112857,30.1348615 18.5112857,30.1348615 C18.5112857,30.1348615 18.5108061,30.1348615 18.5103265,30.1348615 L18.5103265,30.1348615 C18.5103265,30.1348615 18.5103265,30.1348615 18.5103265,30.1348615 C18.5103265,30.1348615 18.5103265,30.1348615 18.5098469,30.1348615 C18.5098469,30.1348615 18.5098469,30.1348615 18.5098469,30.1348615 C18.5088878,30.1348615 18.5093673,30.1348615 18.5093673,30.1348615 C18.5088878,30.1348615 18.5088878,30.1343846 18.5084082,30.1348615 L18.5084082,30.1348615 C18.5084082,30.1348615 18.5084082,30.1348615 18.5079286,30.1348615 C18.5079286,30.1348615 18.5079286,30.1348615 18.507449,30.1348615 C18.5069694,30.1348615 18.5064898,30.1348615 18.5060102,30.1343846 C18.5055306,30.1339077 18.505051,30.1339077 18.5045714,30.1339077 C18.5045714,30.1339077 18.5040918,30.1339077 18.5040918,30.1334308 C18.5040918,30.1334308 18.5036122,30.1334308 18.5036122,30.1334308 C18.5036122,30.1334308 18.5031327,30.1334308 18.5031327,30.1334308 C18.5026531,30.1334308 18.5021735,30.1334308 18.5026531,30.1334308 C18.5021735,30.1334308 18.5021735,30.1334308 18.5021735,30.1334308 L18.5016939,30.1329538 C18.5016939,30.1329538 18.5012143,30.1329538 18.5012143,30.1329538 C18.5012143,30.1329538 18.5012143,30.1329538 18.5012143,30.1329538 C18.4796327,30.1253231 18.4561327,30.1205538 18.4316735,30.1196 L18.4311939,30.1196 C18.4311939,30.1196 18.4307143,30.1196 18.4307143,30.1196 L18.4302347,30.1196 C18.4302347,30.1196 18.4302347,30.1196 18.4302347,30.1196 L18.4297551,30.1196 L18.4297551,30.1196 L18.4292755,30.1196 C18.4292755,30.1196 18.4287959,30.1196 18.4287959,30.1196 L18.4283163,30.1196 L18.4283163,30.1196 C18.4283163,30.1196 18.4283163,30.1196 18.4278367,30.1196 L18.4278367,30.1196 C18.4273571,30.1196 18.4273571,30.1196 18.4273571,30.1196 L18.4268776,30.1196 C18.4268776,30.1196 18.4268776,30.1196 18.4268776,30.1196 C18.4268776,30.1196 18.4268776,30.1196 18.426398,30.1196 L18.426398,30.1196 C18.426398,30.1196 18.426398,30.1196 18.426398,30.1196 L18.4259184,30.1196 L18.4254388,30.1196 C18.4254388,30.1196 18.4254388,30.1196 18.4249592,30.1196 L18.4249592,30.1196 C18.4249592,30.1196 18.4249592,30.1196 18.4249592,30.1196 C17.8125204,30.1196 17.3108673,29.6236 17.3070306,29.0155231 L17.3070306,16.6202923 L18.2566224,16.6202923 C18.2580612,16.6202923 18.2599796,16.6202923 18.2614184,16.6202923 C18.4067347,16.6264923 18.5060102,16.5153692 18.5060102,16.3818308 C18.5060102,16.2821538 18.4446224,16.1967846 18.3573367,16.1610154 L13.7767551,13.0171385 C13.6947449,12.9608615 13.5863571,12.9608615 13.5043469,13.0171385 L8.88779592,16.1858154 C8.80146939,16.2454308 8.76406122,16.3536923 8.79523469,16.4533692 C8.82640816,16.5530462 8.91944898,16.6207692 9.02447959,16.6207692 L9.97886735,16.6207692 L9.97934694,29.0117077 C9.98414286,29.8682615 10.6761939,30.5674308 11.5567245,30.5898462 C11.5667959,30.5908 11.5763878,30.5917538 11.5864592,30.5917538 L18.4163265,30.5917538 C18.4177653,30.5917538 18.4187245,30.5917538 18.4201633,30.5917538 C18.4829898,30.5908 18.5400612,30.5655231 18.5822653,30.5254615 C18.5822653,30.5254615 18.5822653,30.5254615 18.5822653,30.5254615 C18.5827449,30.5249846 18.5837041,30.5240308 18.5841837,30.5235538 C18.5841837,30.5235538 18.5846633,30.5230769 18.5851429,30.5226 C18.5851429,30.5226 18.5851429,30.5226 18.5851429,30.5226 L18.5856224,30.5221231 L18.5856224,30.5221231 L18.5856224,30.5221231 L18.5856224,30.5221231 C18.5856224,30.5221231 18.5856224,30.5221231 18.5856224,30.5221231 C18.586102,30.5221231 18.5856224,30.5221231 18.586102,30.5216462 C18.586102,30.5216462 18.586102,30.5216462 18.586102,30.5216462 L18.586102,30.5216462 C18.586102,30.5216462 18.586102,30.5216462 18.586102,30.5216462 C18.6273469,30.4792 18.6532449,30.4210154 18.6537245,30.3571077 L18.6537245,30.3566308 C18.6537245,30.3566308 18.6537245,30.3566308 18.6537245,30.3566308 C18.6537245,30.3566308 18.6537245,30.3566308 18.6537245,30.3561538 L18.6537245,30.3561538 L18.6537245,30.3561538 L18.6537245,30.3556769 C18.6537245,30.3556769 18.6537245,30.3556769 18.6537245,30.3556769 L18.6537245,30.3552 C18.6551633,30.2550462 18.5980918,30.1730154 18.515602,30.1358154 Z" id="Shape" fill="#DC8327"></path>
                    <path d="M28.4206122,30.1358154 C28.4206122,30.1353385 28.4201327,30.1353385 28.4206122,30.1358154 C28.4196531,30.1353385 28.4191735,30.1353385 28.4186939,30.1348615 L28.4186939,30.1348615 C28.4186939,30.1348615 28.4186939,30.1348615 28.4186939,30.1348615 L28.4182143,30.1348615 C28.4182143,30.1348615 28.4182143,30.1348615 28.4177347,30.1348615 L28.4177347,30.1348615 L28.4172551,30.1348615 C28.4177347,30.1348615 28.4172551,30.1348615 28.4167755,30.1348615 C28.4167755,30.1348615 28.4167755,30.1348615 28.4167755,30.1348615 L28.4167755,30.1348615 C28.4167755,30.1348615 28.4167755,30.1348615 28.4167755,30.1348615 C28.4162959,30.1353385 28.4162959,30.1348615 28.4158163,30.1348615 C28.4158163,30.1348615 28.4153367,30.1348615 28.4153367,30.1348615 L28.4148571,30.1348615 L28.4148571,30.1348615 C28.4148571,30.1348615 28.4148571,30.1348615 28.4148571,30.1348615 C28.4148571,30.1348615 28.4143776,30.1348615 28.4143776,30.1348615 C28.413898,30.1348615 28.413898,30.1348615 28.4134184,30.1348615 C28.4134184,30.1348615 28.4134184,30.1343846 28.4129388,30.1348615 C28.4129388,30.1348615 28.4129388,30.1348615 28.4129388,30.1348615 C28.4129388,30.1348615 28.4124592,30.1348615 28.4124592,30.1348615 L28.4119796,30.1348615 C28.4115,30.1348615 28.4110204,30.1348615 28.4105408,30.1343846 C28.4100612,30.1339077 28.4095816,30.1339077 28.409102,30.1339077 C28.409102,30.1339077 28.4086224,30.1339077 28.4086224,30.1334308 C28.4086224,30.1334308 28.4081429,30.1334308 28.4081429,30.1334308 L28.4076633,30.1334308 C28.4067041,30.1334308 28.4071837,30.1334308 28.4071837,30.1334308 C28.4062245,30.1334308 28.4067041,30.1334308 28.4067041,30.1334308 C28.4062245,30.1334308 28.4062245,30.1329538 28.4057449,30.1329538 L28.4052653,30.1329538 L28.4052653,30.1329538 C28.3836837,30.1253231 28.3601837,30.1205538 28.3357245,30.1196 C28.3357245,30.1196 28.3352449,30.1196 28.3352449,30.1196 L28.3347653,30.1196 C28.3347653,30.1196 28.3342857,30.1196 28.3342857,30.1196 L28.3342857,30.1196 L28.3294898,30.1196 L28.3294898,30.1196 L28.3290102,30.1196 C28.3290102,30.1196 28.3285306,30.1196 28.3285306,30.1196 L28.328051,30.1196 L28.328051,30.1196 C28.328051,30.1196 28.328051,30.1196 28.3275714,30.1196 L28.3275714,30.1196 C28.3270918,30.1196 28.3270918,30.1196 28.3270918,30.1196 C28.3270918,30.1196 28.3266122,30.1196 28.3266122,30.1196 L28.3266122,30.1196 L28.3261327,30.1196 L28.3261327,30.1196 C28.3261327,30.1196 28.3261327,30.1196 28.3256531,30.1196 L28.3256531,30.1196 C28.3256531,30.1196 28.3251735,30.1196 28.3251735,30.1196 C28.3251735,30.1196 28.3251735,30.1196 28.3251735,30.1196 L28.3246939,30.1196 C28.3246939,30.1196 28.3246939,30.1196 28.3242143,30.1196 C27.7117755,30.1196 27.210602,29.6236 27.2067653,29.0155231 L27.2067653,19.3945538 L28.1611531,19.3945538 C28.1645102,19.3945538 28.1673878,19.3940769 28.1707449,19.3945538 C28.3031122,19.3945538 28.4105408,19.2877231 28.4105408,19.1560923 C28.4105408,19.0564154 28.3491531,18.9710462 28.2618673,18.9352769 L23.6808061,15.7914 C23.5987959,15.7351231 23.4904082,15.7351231 23.408398,15.7914 L18.7923265,18.9600769 C18.706,19.0196923 18.6685918,19.1279538 18.6997653,19.2276308 C18.7309388,19.3273077 18.8239796,19.3950308 18.9290102,19.3950308 L19.8790816,19.3950308 L19.8795612,29.0121846 C19.8838776,29.8692154 20.5768878,30.5688615 21.4574184,30.5903231 C21.4670102,30.5912769 21.476602,30.5917538 21.4861939,30.5917538 L28.3246939,30.5917538 C28.3261327,30.5917538 28.3270918,30.5917538 28.3285306,30.5917538 C28.3913571,30.5908 28.4484286,30.5655231 28.4906327,30.5254615 C28.4906327,30.5254615 28.4906327,30.5254615 28.4906327,30.5254615 C28.4911122,30.5249846 28.492551,30.5240308 28.492551,30.5235538 C28.492551,30.5235538 28.4930306,30.5230769 28.4935102,30.5226 C28.4935102,30.5226 28.4935102,30.5226 28.4939898,30.5221231 L28.4939898,30.5221231 L28.4939898,30.5221231 C28.4939898,30.5221231 28.4939898,30.5221231 28.4939898,30.5221231 L28.4939898,30.5221231 L28.4939898,30.5221231 C28.494949,30.5221231 28.4944694,30.5221231 28.4944694,30.5216462 C28.4944694,30.5216462 28.4944694,30.5216462 28.4944694,30.5216462 C28.4944694,30.5216462 28.4944694,30.5216462 28.4944694,30.5216462 C28.4944694,30.5216462 28.4944694,30.5216462 28.4944694,30.5216462 C28.5357143,30.4792 28.5616122,30.4210154 28.5620918,30.3571077 L28.5620918,30.3566308 C28.5620918,30.3566308 28.5620918,30.3566308 28.5620918,30.3566308 C28.5620918,30.3566308 28.5620918,30.3566308 28.5620918,30.3561538 L28.5620918,30.3561538 L28.5620918,30.3561538 L28.5620918,30.3556769 C28.5620918,30.3556769 28.5620918,30.3556769 28.5620918,30.3556769 L28.5620918,30.3552 C28.5606531,30.2550462 28.503102,30.1730154 28.4206122,30.1358154 Z" id="Shape" fill="#F4B21B"></path>
                    <path d="M38.3289796,30.1358154 C38.3289796,30.1353385 38.3285,30.1353385 38.3289796,30.1358154 C38.3280204,30.1353385 38.3275408,30.1353385 38.3275408,30.1353385 L38.3270612,30.1353385 C38.3270612,30.1353385 38.3270612,30.1353385 38.3265816,30.1353385 L38.3265816,30.1353385 C38.3265816,30.1353385 38.3265816,30.1353385 38.326102,30.1353385 C38.326102,30.1353385 38.326102,30.1353385 38.326102,30.1353385 C38.326102,30.1353385 38.326102,30.1353385 38.3256224,30.1353385 L38.3251429,30.1353385 C38.3251429,30.1353385 38.3251429,30.1353385 38.3251429,30.1353385 L38.3251429,30.1353385 C38.3251429,30.1353385 38.3251429,30.1353385 38.3251429,30.1353385 C38.3246633,30.1358154 38.3246633,30.1353385 38.3241837,30.1353385 C38.3246633,30.1353385 38.3241837,30.1353385 38.3237041,30.1353385 L38.3237041,30.1353385 L38.3237041,30.1353385 C38.3237041,30.1353385 38.3237041,30.1353385 38.3237041,30.1353385 L38.3232245,30.1353385 C38.3222653,30.1353385 38.3227449,30.1353385 38.3222653,30.1353385 C38.3222653,30.1353385 38.3222653,30.1348615 38.3217857,30.1353385 C38.3217857,30.1353385 38.3217857,30.1353385 38.3217857,30.1353385 C38.3217857,30.1353385 38.3213061,30.1353385 38.3213061,30.1353385 L38.3208265,30.1353385 C38.3203469,30.1353385 38.3198673,30.1353385 38.3193878,30.1348615 C38.3189082,30.1343846 38.3184286,30.1343846 38.317949,30.1343846 C38.317949,30.1343846 38.3174694,30.1343846 38.3174694,30.1343846 C38.3169898,30.1343846 38.3169898,30.1343846 38.3165102,30.1339077 L38.3160306,30.1339077 C38.3150714,30.1339077 38.3150714,30.1339077 38.3150714,30.1339077 C38.3141122,30.1339077 38.3145918,30.1339077 38.3145918,30.1339077 C38.3145918,30.1339077 38.3141122,30.1339077 38.3141122,30.1339077 L38.3136327,30.1339077 L38.3136327,30.1339077 C38.292051,30.1262769 38.268551,30.1215077 38.2440918,30.1205538 C38.2440918,30.1205538 38.2436122,30.1205538 38.2436122,30.1205538 L38.2431327,30.1205538 C38.2431327,30.1205538 38.2426531,30.1205538 38.2426531,30.1205538 L38.2426531,30.1205538 L38.2378571,30.1205538 L38.2378571,30.1205538 C38.2378571,30.1205538 38.2373776,30.1205538 38.2373776,30.1205538 L38.236898,30.1205538 C38.236898,30.1205538 38.2364184,30.1205538 38.2364184,30.1205538 L38.2364184,30.1205538 C38.2364184,30.1205538 38.2364184,30.1205538 38.2364184,30.1205538 L38.2359388,30.1205538 C38.2354592,30.1205538 38.2354592,30.1205538 38.2354592,30.1205538 C38.2354592,30.1205538 38.2349796,30.1205538 38.2349796,30.1205538 L38.2349796,30.1205538 L38.2345,30.1205538 L38.2345,30.1205538 C38.2345,30.1205538 38.2345,30.1205538 38.2340204,30.1205538 L38.2340204,30.1205538 C38.2340204,30.1205538 38.2335408,30.1205538 38.2335408,30.1205538 C38.2335408,30.1205538 38.2335408,30.1205538 38.2335408,30.1205538 L38.2330612,30.1205538 C38.2330612,30.1205538 38.2330612,30.1205538 38.2325816,30.1205538 C37.6201429,30.1205538 37.1189694,29.6245538 37.1151327,29.0164769 L37.1151327,22.1673846 L38.0671224,22.1673846 C38.0685612,22.1673846 38.0704796,22.1673846 38.0719184,22.1673846 C38.2066837,22.1640462 38.3165102,22.0624615 38.3165102,21.9289231 C38.3165102,21.8292462 38.2551224,21.7438769 38.1678367,21.7081077 L33.5867755,18.5642308 C33.5047653,18.5079538 33.3963776,18.5079538 33.3143673,18.5642308 L28.6982959,21.7324308 C28.6119694,21.7920462 28.5745612,21.9003077 28.6057347,21.9999846 C28.6369082,22.0996615 28.729949,22.1673846 28.8349796,22.1673846 L29.7869694,22.1673846 L29.787449,29.0112308 C29.7922449,29.8682615 30.4852551,30.5679077 31.3653061,30.5893692 C31.374898,30.5903231 31.3844898,30.5908 31.3940816,30.5908 L38.2325816,30.5908 C38.2340204,30.5908 38.2349796,30.5908 38.2364184,30.5908 C38.2992449,30.5898462 38.3563163,30.5645692 38.3985204,30.5245077 C38.3985204,30.5245077 38.3985204,30.5245077 38.3985204,30.5245077 C38.399,30.5240308 38.4004388,30.5230769 38.4004388,30.5226 C38.4004388,30.5226 38.4009184,30.5221231 38.401398,30.5216462 C38.401398,30.5216462 38.401398,30.5216462 38.4018776,30.5211692 L38.4018776,30.5211692 L38.4018776,30.5211692 L38.4018776,30.5211692 L38.4018776,30.5211692 C38.4018776,30.5211692 38.4018776,30.5211692 38.4018776,30.5211692 C38.4028367,30.5211692 38.4018776,30.5211692 38.4023571,30.5206923 C38.4023571,30.5206923 38.4023571,30.5206923 38.4023571,30.5206923 C38.4023571,30.5206923 38.4023571,30.5206923 38.4023571,30.5206923 C38.4023571,30.5206923 38.4023571,30.5206923 38.4023571,30.5206923 C38.443602,30.4782462 38.4695,30.4200615 38.4699796,30.3561538 L38.4699796,30.3556769 C38.4699796,30.3556769 38.4699796,30.3556769 38.4699796,30.3556769 C38.4699796,30.3556769 38.4699796,30.3556769 38.4699796,30.3552 L38.4699796,30.3552 L38.4699796,30.3552 L38.4699796,30.3547231 C38.4699796,30.3547231 38.4699796,30.3547231 38.4699796,30.3547231 L38.4699796,30.3542462 C38.4690204,30.2550462 38.4114694,30.1730154 38.3289796,30.1358154 Z" id="Shape" fill="#F2D864"></path>
                </g>
                <g transform="translate(52.000000, 13.000000)" fill="#FFFFFF">
                    <path d="M31.5471957,6.7893913 C31.049034,6.25086957 30.4244085,5.82473913 29.6915915,5.52343478 C28.9448298,5.21830435 28.0749702,5.06143478 27.1060553,5.0576087 C26.138583,5.06143478 25.2682426,5.21830435 24.5219617,5.52343478 C23.7891447,5.82473913 23.1645191,6.2503913 22.6658766,6.7893913 C22.1571362,7.34369565 21.7859191,7.96686957 21.5325106,8.69382609 C21.2742936,9.42317391 21.143983,10.2252174 21.143983,11.078913 C21.143983,11.7274348 21.2113021,12.3606522 21.3449787,12.9613478 C21.4743277,13.5457826 21.6868638,14.1010435 21.9782596,14.6127826 C22.264366,15.1096957 22.641834,15.5516087 23.100566,15.9241739 C23.5554511,16.2976957 24.1199702,16.5923043 24.7787362,16.7998696 C25.4375021,17.0107826 26.2208085,17.1198261 27.1065362,17.1236522 C27.9922638,17.1198261 28.7750894,17.0107826 29.4333745,16.7998696 C30.0926213,16.5923043 30.6571404,16.2981739 31.1115447,15.9246522 C31.5678723,15.5563913 31.9458213,15.1149565 32.2362553,14.6113478 C32.5262085,14.1005652 32.7392255,13.5448261 32.8685745,12.9608696 C33.0041745,12.3673478 33.0695702,11.7518261 33.0695702,11.0784348 C33.0695702,10.2256957 32.9387787,9.42317391 32.6810426,8.69382609 C32.427634,7.96734783 32.056417,7.34417391 31.5471957,6.7893913 Z M30.0176085,12.5883043 C29.9065319,13.0593913 29.7247702,13.4926957 29.4771319,13.8743478 C29.2294936,14.2564783 28.9049191,14.5635217 28.5135064,14.7873478 C28.1182468,15.0087826 27.6460511,15.1226087 27.1089404,15.1264348 C26.5699064,15.1226087 26.0991532,15.0087826 25.7062979,14.7883043 C25.3081532,14.5606522 24.982617,14.2536087 24.7364213,13.8743478 C24.4945532,13.5017826 24.3132723,13.0694348 24.1964255,12.5883043 C24.0829447,12.1210435 24.0252426,11.6131304 24.0252426,11.0798696 C24.0252426,10.5212609 24.0853489,9.99517391 24.2041191,9.51691304 C24.3195234,9.04008696 24.5056128,8.60965217 24.7585404,8.23947826 C25.0153149,7.86691304 25.3422936,7.57469565 25.7308213,7.36904348 C26.1183872,7.16578261 26.580966,7.06056522 27.1055745,7.05626087 L27.1094213,7.05626087 C27.6321064,7.06056522 28.095166,7.16530435 28.4865787,7.36808696 C28.8751064,7.57565217 29.2001617,7.86834783 29.4554936,8.23852174 C29.7064979,8.60726087 29.8940298,9.03673913 30.0137617,9.5173913 C30.1306085,9.99995652 30.1892723,10.525087 30.1892723,11.0803478 C30.1887915,11.6126522 30.1310894,12.120087 30.0176085,12.5883043 Z" id="Shape"></path>
                    <path d="M40.5117021,16.8682609 C40.9863021,16.696087 41.4084894,16.4607826 41.7652809,16.1695217 C42.1389021,15.8677391 42.478383,15.5147826 42.7741064,15.1187826 L42.8447915,15.0245652 L43.1977362,15.0245652 L43.243417,15.2584348 L43.243417,15.6922174 C43.243417,15.995913 43.2890979,16.2541739 43.382383,16.4827826 C43.4703787,16.685087 43.6026128,16.8395652 43.7848553,16.9495652 C43.9685404,17.062913 44.2171404,17.1217391 44.5258468,17.125087 C44.8292638,17.1217391 45.0783447,17.062913 45.2601064,16.951 C45.4437915,16.8395652 45.5760255,16.6855652 45.6654638,16.4789565 C45.7577872,16.2546522 45.8029872,15.9963913 45.8029872,15.6926957 L45.8029872,6.49095652 C45.8063532,6.22073913 45.7625957,5.97156522 45.6741191,5.74678261 C45.5957404,5.54065217 45.4591787,5.38091304 45.2557787,5.25417391 C45.0466085,5.12743478 44.744634,5.06095652 44.360434,5.0576087 C43.982966,5.06095652 43.682434,5.12791304 43.4713404,5.2556087 C43.2703447,5.38043478 43.1318596,5.54113043 43.0501149,5.74678261 C42.9616383,5.97108696 42.9183617,6.22073913 42.9217277,6.48808696 L42.9217277,11.9928696 C42.9174,12.4515217 42.8342128,12.8475217 42.6663957,13.2066957 C42.4995404,13.5591739 42.2793106,13.86 42.0105149,14.1029565 C41.7426809,14.3449565 41.4421489,14.5324348 41.1166128,14.661087 C40.7785745,14.7902174 40.4597702,14.8528696 40.1385617,14.8528696 C39.6153957,14.8485652 39.1739745,14.7366522 38.8248766,14.5204783 C38.4738553,14.2995217 38.2093872,13.9910435 38.0367617,13.6022174 C37.874234,13.2377826 37.7915277,12.8035217 37.7915277,12.3133043 L37.7915277,6.49095652 C37.7948936,6.22169565 37.7511362,5.97252174 37.6621787,5.74678261 C37.5799532,5.53921739 37.4433915,5.37852174 37.2438383,5.25513043 C37.0351489,5.1283913 36.7326936,5.06191304 36.3484936,5.05808696 C35.9686213,5.06143478 35.6666468,5.1283913 35.456034,5.25608696 C35.2579234,5.38091304 35.1204,5.54256522 35.0391362,5.74726087 C34.9501787,5.97204348 34.9069021,6.22121739 34.9107489,6.48808696 L34.9107489,12.9752174 C34.9174809,13.7844348 35.0376936,14.4645217 35.2665787,14.994913 C35.4954638,15.5214783 35.8022468,15.9452174 36.1787532,16.2536957 C36.5629532,16.567913 36.9798511,16.7874348 37.4539702,16.9251739 C37.9165489,17.0600435 38.3752809,17.1255652 38.8575745,17.1255652 L38.8970043,17.1255652 C39.4990298,17.1212609 40.0423915,17.0346957 40.5117021,16.8682609 Z" id="Shape"></path>
                    <path d="M18.4555447,0.721217391 C18.2324298,0.613608696 17.9770979,0.560043478 17.6780085,0.560043478 C17.3832468,0.560043478 17.1207021,0.615043478 16.8975872,0.722652174 C16.6913021,0.826913043 16.533583,0.978521739 16.4186596,1.18513043 C16.3018128,1.3946087 16.2407447,1.66721739 16.2378596,1.99482609 L16.2378596,15.6917391 C16.2412255,16.0169565 16.3022936,16.2895652 16.4186596,16.4995217 C16.5316596,16.7023043 16.6893787,16.8529565 16.901434,16.960087 C17.1202213,17.0691304 17.3822851,17.125087 17.6784894,17.125087 C17.9785404,17.125087 18.2333915,17.0710435 18.4574681,16.9596087 C18.6671191,16.8534348 18.8253191,16.7032609 18.9383191,16.5 C19.055166,16.2905217 19.116234,16.017913 19.1196,15.6898261 L19.1196,1.99291304 C19.1157532,1.66721739 19.0546851,1.39508696 18.9383191,1.1856087 C18.8229149,0.979 18.6651957,0.827391304 18.4555447,0.721217391 Z" id="Shape"></path>
                    <path d="M112.610991,5.99069565 C112.562426,5.85295652 112.480681,5.70708696 112.370085,5.56456522 C112.260451,5.42778261 112.110906,5.31108696 111.916162,5.21065217 C111.725745,5.1126087 111.481953,5.06095652 111.191038,5.0576087 C110.931379,5.06095652 110.717881,5.11404348 110.544294,5.22069565 C110.363494,5.33213043 110.213949,5.48278261 110.10143,5.66786957 C109.979294,5.87208696 109.885047,6.10165217 109.813881,6.36804348 L107.724102,14.0991304 L107.364426,14.0991304 L107.270179,13.9274348 L105.1126,6.14182609 C105.019315,5.80704348 104.850536,5.54973913 104.596166,5.35604348 C104.334102,5.159 104.012894,5.06143478 103.616191,5.0576087 C103.35557,5.06095652 103.1238,5.11978261 102.91463,5.23695652 C102.702574,5.35843478 102.538604,5.51721739 102.415506,5.72047826 C102.289043,5.92326087 102.227013,6.15330435 102.223166,6.42495652 C102.223166,6.52969565 102.237111,6.64591304 102.263557,6.7673913 C102.292889,6.90178261 102.336647,7.05386957 102.39483,7.22747826 C102.455898,7.414 102.532353,7.63686957 102.623715,7.898 L106.135851,17.8491739 L106.119021,17.917087 C106.02766,18.2810435 105.905043,18.5579565 105.755498,18.7392174 C105.596817,18.9257391 105.416979,19.0443478 105.218868,19.0950435 C105.073651,19.1294783 104.932281,19.1457391 104.794277,19.1457391 L104.707723,19.1438261 L104.376417,19.1438261 C104.103774,19.1438261 103.874409,19.1868696 103.676779,19.2753478 C103.487323,19.3571304 103.339221,19.479087 103.233915,19.6393043 C103.12957,19.8014348 103.076677,20.0046957 103.073791,20.260087 C103.073791,20.4896522 103.132936,20.6953043 103.254591,20.8846957 C103.379132,21.0793478 103.569549,21.2323913 103.838826,21.352913 C104.115796,21.4820435 104.488936,21.549 104.951034,21.5528261 C105.447272,21.5528261 105.882923,21.4834783 106.245004,21.3471739 C106.611413,21.2089565 106.921081,21.0109565 107.190838,20.7421739 C107.470694,20.4643043 107.721698,20.1180435 107.938081,19.713913 C108.160715,19.2853913 108.370847,18.7889565 108.562226,18.2403913 L112.442213,7.30304348 C112.520591,7.09117391 112.579736,6.90417391 112.623974,6.73582609 C112.661481,6.58182609 112.681196,6.44456522 112.681196,6.33073913 C112.680234,6.27526087 112.668694,6.171 112.610991,5.99069565 Z" id="Shape"></path>
                    <path d="M91.068383,15.354087 C91.0202979,15.1866957 90.9803872,14.9925217 90.9424,14.7409565 C90.9077787,14.5118696 90.8904681,14.2273043 90.8866213,13.8451739 L90.8866213,8.24904348 C90.8832553,7.69282609 90.7606383,7.2136087 90.5230979,6.82621739 C90.2783447,6.42304348 89.9403064,6.10165217 89.4887872,5.841 C89.0324596,5.57747826 88.4780383,5.37947826 87.842834,5.25178261 C87.2008979,5.1236087 86.4738511,5.05856522 85.6818894,5.05856522 C85.5761021,5.05904348 85.4717574,5.06095652 85.3683745,5.06430435 L85.2847064,5.07147826 C84.9606128,5.08486957 84.672583,5.10878261 84.4042681,5.1456087 L84.278766,5.16521739 C83.9604426,5.214 83.6935702,5.26947826 83.4618,5.33452174 C82.8275574,5.50956522 82.2890043,5.74247826 81.8596043,6.02704348 C81.4302043,6.31304348 81.1075532,6.61865217 80.9007872,6.93430435 C80.6920979,7.25282609 80.5901574,7.5483913 80.5901574,7.83773913 C80.5935234,8.02713043 80.6411277,8.19691304 80.7363362,8.35186957 C80.8325064,8.50873913 80.966183,8.63356522 81.1465021,8.73256522 C81.3258596,8.82821739 81.5408,8.8793913 81.7821872,8.88226087 C81.9879915,8.87891304 82.1740809,8.82726087 82.3293957,8.72873913 C82.4972128,8.61969565 82.6703191,8.47765217 82.8410213,8.30786957 C83.0314383,8.11417391 83.239166,7.92621739 83.4555489,7.75117391 C83.697417,7.55556522 83.9897745,7.39534783 84.3475277,7.26095652 C84.4999574,7.20452174 84.6783532,7.15956522 84.8942553,7.12273913 C84.9370511,7.11508696 84.9836936,7.10982609 85.030817,7.10456522 L85.0846723,7.09882609 C85.2563362,7.07778261 85.4448298,7.05769565 85.6568851,7.05578261 C86.0651277,7.05578261 86.4406723,7.10647826 86.774383,7.20643478 C87.1345404,7.31452174 87.4268979,7.48765217 87.6447234,7.72056522 C87.8788979,7.96256522 88.001034,8.27869565 88.0058426,8.657 C88.0015149,9.02908696 87.9226553,9.31078261 87.765417,9.52504348 C87.6043319,9.7326087 87.3917957,9.87943478 87.1297319,9.966 C86.9013277,10.043 86.6383021,10.0965652 86.3478681,10.1252609 L84.307617,10.3533913 C83.6926085,10.4184348 83.0934681,10.528913 82.5251021,10.6814783 C81.983183,10.8316522 81.505217,11.0430435 81.1065915,11.3084783 C80.7113319,11.572 80.3992596,11.9192174 80.1780681,12.3410435 C79.9530298,12.7681304 79.8371447,13.311913 79.8337787,13.9580435 C79.8371447,14.4391739 79.9381234,14.8820435 80.1343106,15.2718261 C80.3304979,15.6616087 80.5896766,15.9868261 80.927234,16.2656522 C81.259983,16.5406522 81.644183,16.7544348 82.0673319,16.9022174 C82.5010596,17.051913 82.9328638,17.125087 83.3858255,17.125087 L83.4387191,17.125087 C83.9888128,17.125087 84.5196723,17.0657826 85.0154298,16.9486087 C85.1091957,16.9266087 85.202,16.9022174 85.2933617,16.8749565 C85.3640468,16.8543913 85.4323277,16.8276087 85.5010894,16.8008261 L85.689583,16.731 C85.7343021,16.7156957 85.7785404,16.7008696 85.821817,16.6822174 C86.0684936,16.5793913 86.2839149,16.4732174 86.4796213,16.3579565 C86.9397957,16.0853478 87.3855447,15.7156522 87.8034043,15.2598696 L88.1928936,14.8346957 L88.2121277,15.4095652 C88.2222255,15.719 88.2866596,16.0131304 88.4035064,16.2843043 C88.514583,16.5339565 88.6881702,16.7319565 88.9329234,16.8864348 C89.1771957,17.040913 89.5205234,17.1207826 89.9528085,17.1241304 C90.1898681,17.1207826 90.4038468,17.0743913 90.6009957,16.9825652 C90.7899702,16.8950435 90.9448043,16.7692609 91.0611702,16.6085652 C91.1703234,16.4569565 91.2280255,16.278087 91.2309106,16.0753043 C91.2309106,15.9772609 91.2164851,15.8773043 91.1852298,15.7639565 L91.068383,15.354087 Z M88.0053617,12.7466087 C88.0053617,13.0861739 87.9293872,13.4214348 87.7808043,13.7428261 C87.6293362,14.0613478 87.4187234,14.3387391 87.135983,14.5941304 C86.8609362,14.8394783 86.5228979,15.0365217 86.1300426,15.1809565 C85.9660723,15.2402609 85.779983,15.2885652 85.560234,15.3282609 L85.4626213,15.3464348 C85.2433532,15.3808696 85.0298553,15.3985652 84.8110681,15.4004783 C84.3884,15.3961739 84.023434,15.3268261 83.7229021,15.1938696 C83.4098681,15.057087 83.1612681,14.8648261 82.9847957,14.6223478 C82.8059191,14.3760435 82.7150383,14.0981739 82.7150383,13.7968696 C82.7150383,13.4147391 82.8145745,13.0895217 83.0107617,12.8303043 C83.2006979,12.5758696 83.4795915,12.373087 83.8373447,12.2291304 C84.1797106,12.0913913 84.5961277,11.9876087 85.0750553,11.9211304 L86.2896851,11.738913 C86.4156681,11.7173913 86.5695404,11.6877391 86.7416851,11.6504348 C86.9051745,11.6150435 87.0710681,11.5648261 87.2335957,11.5016957 C87.3816979,11.4438261 87.5057574,11.3687391 87.6129872,11.2721304 L88.0058426,10.9167826 L88.0058426,12.7466087 L88.0053617,12.7466087 Z" id="Shape"></path>
                    <path d="M6.22413617,3.41095652 C6.77615319,3.1483913 7.37240851,3.01543478 7.99751489,3.01543478 C8.60675319,3.01926087 9.09577872,3.09673913 9.49488511,3.25217391 C9.88870213,3.39995652 10.2262596,3.59986957 10.4945745,3.84569565 C10.7484638,4.08195652 10.9701362,4.33495652 11.1552638,4.59943478 C11.3298128,4.84765217 11.500034,5.08534783 11.6692936,5.30726087 C11.8226851,5.50717391 12.0054085,5.67169565 12.2126553,5.79652174 C12.4126894,5.91752174 12.6713872,5.98017391 12.9810553,5.98352174 C13.4705617,5.98017391 13.8412979,5.85247826 14.0788383,5.60378261 C14.3207064,5.35604348 14.4423617,4.99495652 14.4423617,4.52817391 C14.4423617,4.24695652 14.3558085,3.92317391 14.1855872,3.56686957 C14.0095957,3.21008696 13.744166,2.84565217 13.3979532,2.48695652 C13.0507787,2.12730435 12.6122426,1.79108696 12.0938851,1.48786957 C11.5788936,1.18608696 10.9710979,0.939304348 10.2882894,0.754695652 C9.60259574,0.569130435 8.83131064,0.473478261 7.99607234,0.470130435 C6.96993617,0.473478261 6.02506383,0.620304348 5.18886383,0.905826087 C4.36324255,1.19230435 3.62657872,1.5973913 3.00051064,2.11008696 C2.37059574,2.63330435 1.84214043,3.24547826 1.43149362,3.92891304 C1.00545957,4.63530435 0.683289362,5.40769565 0.473638298,6.226 C0.260621277,7.0596087 0.152429787,7.94008696 0.152429787,8.84304348 C0.159642553,10.6891304 0.481812766,12.252087 1.11028511,13.4864783 C1.73635319,14.7146522 2.64804681,15.651087 3.81891915,16.2699565 C5.00758298,16.897913 6.45975319,17.2164348 8.1340766,17.216913 C9.02509362,17.2097391 9.86273617,17.0777391 10.6234426,16.8256957 C11.3889574,16.5669565 12.0655149,16.2187826 12.6338809,15.7916957 C13.2065745,15.357913 13.6547277,14.8715217 13.9658383,14.3454348 C14.2779106,13.8198261 14.4385149,13.2741304 14.4418809,12.7231739 C14.4356298,12.4749565 14.3635021,12.2659565 14.2221319,12.0913913 C14.0721064,11.9091739 13.8749574,11.7685652 13.637417,11.6748261 C13.3854511,11.5715217 13.1180979,11.5198696 12.840166,11.5198696 C12.5949319,11.5232174 12.3848,11.5858696 12.2001532,11.7111739 C12.0082936,11.8455652 11.8298979,12.0206087 11.658234,12.2458696 C11.4798383,12.4797391 11.2971149,12.7327391 11.1076596,12.9972174 C10.9129149,13.2731739 10.6859532,13.5386087 10.4339872,13.7853913 C10.1728851,14.0412609 9.8516766,14.2545652 9.48094043,14.4181304 C9.10154894,14.5816957 8.65002979,14.6663478 8.13648085,14.6706522 C7.28729787,14.6663478 6.55448085,14.5051739 5.95485957,14.1909565 C5.35571915,13.8786522 4.86188511,13.442 4.48874468,12.893913 C4.12522128,12.3534783 3.85642553,11.7274348 3.68957021,11.0325217 C3.52415745,10.3428696 3.44193191,9.60586957 3.44577872,8.84208696 C3.45010638,7.9333913 3.56839574,7.10982609 3.79728085,6.39434783 C4.03241702,5.67313043 4.3598766,5.05713043 4.7695617,4.56213043 C5.18838298,4.05756522 5.67740851,3.67065217 6.22413617,3.41095652 Z" id="Shape"></path>
                    <path d="M59.0427404,1.99291304 C59.0427404,1.67247826 58.9816723,1.40082609 58.8619404,1.1856087 C58.747017,0.979 58.5892979,0.827391304 58.379166,0.721217391 C57.9478426,0.509347826 57.2708043,0.505521739 56.8212085,0.723130435 C56.6149234,0.827391304 56.4572043,0.979 56.3422809,1.1856087 C56.2259149,1.3946087 56.1648468,1.66673913 56.1614809,1.99578261 L56.1614809,6.74730435 L55.7955532,6.74730435 L55.6806298,6.63634783 C55.3695191,6.13656522 54.9478128,5.74486957 54.4280128,5.47178261 C54.2943362,5.40243478 54.1452723,5.34026087 53.9731277,5.28095652 C53.9437957,5.27091304 53.913983,5.26278261 53.8841702,5.25465217 L53.8173319,5.23552174 C53.7048128,5.20204348 53.5894085,5.17143478 53.4701574,5.148 L53.4138979,5.13365217 C53.3537915,5.12121739 53.3109957,5.11643478 53.2682,5.11165217 L53.0498936,5.08343478 C52.8960213,5.06813043 52.7383021,5.05808696 52.5738511,5.05713043 C51.8982553,5.06095652 51.2899787,5.16808696 50.7687362,5.37565217 C50.2455702,5.58226087 49.7834723,5.87543478 49.3944638,6.248 C49.0025702,6.62247826 48.683766,7.05195652 48.418817,7.56034783 C48.1567532,8.07065217 47.9615277,8.61873913 47.8393915,9.1873913 C47.7110043,9.768 47.6456085,10.3806522 47.6456085,11.0105217 C47.6533021,12.0617391 47.7932298,12.9823913 48.060583,13.7452174 C48.3298596,14.5118696 48.7001149,15.1498696 49.1622128,15.6415217 C49.619983,16.1360435 50.1556511,16.511 50.7557532,16.7568261 C51.3544128,16.9997826 51.9977915,17.1236522 52.6666553,17.1236522 C52.9200638,17.1236522 53.1677021,17.1064348 53.4013957,17.072 C53.6562468,17.0332609 53.8923447,16.9787391 54.1120936,16.907 C54.5458213,16.762087 54.927617,16.5430435 55.244017,16.256087 C55.560417,15.9763043 55.8085362,15.6118696 55.9830851,15.1713913 L56.0417489,15.0236087 L56.4365277,15.0236087 L56.4822085,15.2574783 L56.4822085,15.7826087 C56.4855745,16.2345652 56.5932851,16.575087 56.803417,16.7931739 C57.0145106,17.0126957 57.3376426,17.1241304 57.762234,17.1241304 C58.2031745,17.1241304 58.5301532,17.0136522 58.734034,16.7955652 C58.9383957,16.5765217 59.0422596,16.236 59.0422596,15.7826087 L59.0422596,1.99291304 L59.0427404,1.99291304 Z M56.1941787,12.5433478 C56.0932,12.9996087 55.9258638,13.4152174 55.6969787,13.7767826 C55.4704979,14.1412174 55.1637149,14.4377391 54.7862468,14.6567826 C54.6910383,14.7122609 54.5910213,14.760087 54.4857149,14.8016957 C54.4573447,14.8126957 54.4265702,14.8217826 54.3962766,14.8308696 L54.3265532,14.8528696 C54.2717362,14.8715217 54.2169191,14.8901739 54.1582553,14.9040435 C54.1226723,14.9126522 54.085166,14.9188696 54.0476596,14.9246087 L54.0014979,14.9322609 C53.9077319,14.9504348 53.859166,14.96 53.8077149,14.9662174 C53.7673234,14.971 53.7250085,14.972913 53.6831745,14.9748261 L53.5773872,14.9810435 C53.5273787,14.9848696 53.4778511,14.9886957 53.4259191,14.9891739 C52.9292,14.972913 52.4978766,14.8571739 52.1343532,14.6448261 C51.7722723,14.4377391 51.4654894,14.1498261 51.2236213,13.7892174 C50.9908894,13.4357826 50.814417,13.0268696 50.6980511,12.5715652 C50.5840894,12.1291739 50.5263872,11.6423043 50.5263872,11.1248261 C50.5263872,10.791 50.5518723,10.4495217 50.6014,10.1094783 C50.6523702,9.76226087 50.7398851,9.41408696 50.8615404,9.07547826 C50.9875234,8.73113043 51.1620723,8.41691304 51.379417,8.13856522 C51.6006085,7.8516087 51.8843106,7.6206087 52.2209064,7.45321739 C52.5507702,7.28486957 52.9556468,7.19686957 53.4220723,7.19256522 L53.4239957,7.19256522 C53.4865064,7.19256522 53.5456511,7.19686957 53.6047957,7.20165217 L53.7076979,7.20786957 C53.7471277,7.20930435 53.7855957,7.21121739 53.8226213,7.216 C53.8870553,7.22365217 53.9476426,7.23608696 54.0082298,7.24852174 L54.0899745,7.26382609 C54.1231532,7.26908696 54.1558511,7.27482609 54.1871064,7.28295652 C54.2563489,7.30065217 54.3217447,7.32408696 54.3861787,7.348 L54.4443617,7.36808696 C54.4717702,7.37669565 54.5001404,7.38578261 54.5256255,7.39678261 C54.6323745,7.44221739 54.7343149,7.49530435 54.830966,7.55604348 C55.2108383,7.79517391 55.5156979,8.11656522 55.7368894,8.51113043 C55.9532723,8.88943478 56.112434,9.31413043 56.209566,9.77182609 C56.3042936,10.2443478 56.3480511,10.6872174 56.3446851,11.1272174 C56.345166,11.6356087 56.2956383,12.0990435 56.1941787,12.5433478 Z" id="Shape"></path>
                    <path d="M100.657515,7.29826087 C100.793115,7.08782609 100.862838,6.8003913 100.866204,6.44313043 C100.862838,6.17578261 100.796481,5.94191304 100.662323,5.73434783 C100.530089,5.52869565 100.342557,5.36465217 100.105017,5.24652174 C99.8631489,5.12265217 99.588583,5.06143478 99.262566,5.05808696 C98.9038511,5.06143478 98.5807191,5.13556522 98.3071149,5.27856522 C98.0335106,5.42156522 97.7993362,5.61382609 97.5916085,5.86634783 C97.3872468,6.11982609 97.2126979,6.40726087 97.0737319,6.7186087 C96.9261106,7.04047826 96.8092638,7.36617391 96.7145362,7.71578261 L96.6683745,7.88891304 L96.2529191,7.88891304 L96.2072383,7.65504348 L96.2072383,6.37665217 C96.2033915,6.08586957 96.1456894,5.83813043 96.0346128,5.643 C95.9225745,5.44930435 95.7763957,5.30726087 95.588383,5.21065217 C95.3936383,5.10878261 95.171966,5.0576087 94.9272128,5.0576087 C94.6824596,5.0576087 94.4607872,5.10878261 94.2674851,5.20969565 C94.0780298,5.30726087 93.9318511,5.44882609 93.8188511,5.64443478 C93.7087362,5.83813043 93.6505532,6.0853913 93.6476681,6.37904348 L93.6476681,15.6917391 C93.6438213,15.961 93.6870979,16.2101739 93.7765362,16.435913 C93.8563574,16.6377391 93.9948426,16.7974783 94.1992043,16.9246957 C94.4040468,17.0543043 94.7026553,17.1212609 95.0882979,17.125087 C95.4729787,17.1212609 95.7735106,17.0543043 95.9807574,16.9246957 C96.1817532,16.7998696 96.3187957,16.6401304 96.4000596,16.435913 C96.489017,16.212087 96.5322936,15.9624348 96.5289277,15.695087 L96.5289277,11.8111304 C96.5289277,10.866087 96.6106723,10.129087 96.7789702,9.55756522 C96.9559234,8.96356522 97.2213532,8.53121739 97.567566,8.272 C97.9094511,8.01134783 98.3282723,7.8783913 98.8110468,7.8783913 L99.449617,7.87886957 C99.7049489,7.87886957 99.940566,7.832 100.149736,7.73921739 C100.358426,7.64834783 100.529128,7.50104348 100.657515,7.29826087 Z" id="Shape"></path>
                    <path d="M76.6091915,5.93043478 C76.2245106,5.61573913 75.8076128,5.39621739 75.3330128,5.258 C74.8694723,5.12313043 74.4107404,5.0576087 73.9289277,5.0576087 C73.2783362,5.06143478 72.7359362,5.148 72.2772043,5.31395652 C71.8011617,5.4866087 71.3789745,5.72143478 71.0226638,6.01269565 C70.6476,6.31591304 70.3086,6.66886957 70.0138383,7.06343478 L69.943634,7.15813043 L69.5902085,7.15813043 L69.5440468,6.92426087 L69.5440468,6.49047826 C69.5440468,6.18678261 69.4974043,5.92134783 69.4055617,5.70086957 C69.3180468,5.4976087 69.1858128,5.34313043 69.0030894,5.23217391 C68.8145957,5.11595652 68.5664766,5.05713043 68.264983,5.05713043 C67.9634894,5.05713043 67.7153702,5.11595652 67.5278383,5.23121739 C67.3436723,5.34313043 67.2114383,5.49713043 67.1224809,5.70326087 C67.0316,5.92134783 66.9849574,6.18726087 66.9849574,6.49 L66.9849574,15.6917391 C66.9815915,15.9619565 67.0248681,16.2116087 67.1138255,16.4354348 C67.1936468,16.6367826 67.3316511,16.797 67.5345702,16.9251739 C67.7413362,17.0538261 68.0418681,17.1212609 68.4279915,17.1246087 C68.8097872,17.1212609 69.1103191,17.0538261 69.3185277,16.9242174 C69.5195234,16.7993913 69.656566,16.6396522 69.7378298,16.4354348 C69.8267872,16.2101739 69.8700638,15.961 69.866217,15.695087 L69.866217,10.1898261 C69.8710255,9.72973913 69.9542128,9.33373913 70.1220298,8.976 C70.2888851,8.62352174 70.5091149,8.32221739 70.7779106,8.07973913 C71.0443021,7.83869565 71.344834,7.65121739 71.6713319,7.52208696 C71.9978298,7.39343478 72.3175957,7.33078261 72.6498638,7.33078261 C73.1768766,7.3346087 73.6187787,7.447 73.9649915,7.66317391 C74.3145702,7.88365217 74.5785574,8.19117391 74.7507021,8.57665217 C74.9141915,8.94586957 74.9968979,9.3806087 74.9968979,9.87034783 L74.9968979,15.6917391 C74.9935319,15.9619565 75.0368085,16.2111304 75.125766,16.435913 C75.2055872,16.6377391 75.3440723,16.7974783 75.548434,16.9246957 C75.7566426,17.0538261 76.0552511,17.1212609 76.4375277,17.125087 C76.8222085,17.1212609 77.1232213,17.0543043 77.3309489,16.9246957 C77.5357915,16.7974783 77.6723532,16.6382174 77.7478468,16.4392609 C77.8382468,16.212087 77.8815234,15.962913 77.8781574,15.695087 L77.8781574,9.20795652 C77.8709447,8.39826087 77.7512128,7.71817391 77.5223277,7.18826087 C77.2900766,6.65595652 76.9832936,6.23269565 76.6091915,5.93043478 Z" id="Shape"></path>
                    <path d="M63.9070298,5.25465217 C63.6978596,5.12791304 63.3954043,5.06143478 63.0112043,5.05808696 C62.6361404,5.06143478 62.327434,5.12982609 62.1230723,5.2556087 C61.9215957,5.38091304 61.7831106,5.54208696 61.701366,5.74726087 C61.6124085,5.973 61.5691319,6.22217391 61.5729787,6.48808696 L61.5729787,15.6917391 C61.5691319,15.961 61.6124085,16.2101739 61.7018468,16.435913 C61.7816681,16.6377391 61.9201532,16.7974783 62.1245149,16.9246957 C62.3293574,17.0543043 62.627966,17.1212609 63.0136085,17.125087 C63.3982894,17.1212609 63.6993021,17.0543043 63.9070298,16.9246957 C64.1070638,16.7998696 64.2441064,16.6401304 64.3253702,16.435913 C64.4143277,16.212087 64.4576043,15.9624348 64.4542383,15.695087 L64.4542383,6.49095652 C64.4576043,6.22073913 64.4138468,5.97156522 64.3253702,5.74678261 C64.2426638,5.53969565 64.1061021,5.37852174 63.9070298,5.25465217 Z" id="Shape"></path>
                    <path d="M63.7502723,0.759 C63.5324468,0.631782609 63.2857702,0.564826087 63.0140894,0.561478261 C62.7419277,0.564826087 62.4952511,0.631304348 62.2779064,0.759 C62.0571957,0.889565217 61.8840894,1.06126087 61.752817,1.28126087 C61.6249106,1.49791304 61.5575915,1.74326087 61.5542255,2.01347826 C61.5575915,2.28417391 61.6244298,2.52952174 61.752817,2.74569565 C61.8840894,2.96521739 62.0571957,3.1373913 62.2779064,3.26795652 C62.4957319,3.39517391 62.7419277,3.46213043 63.0140894,3.46547826 C63.2862511,3.46213043 63.5324468,3.39565217 63.7502723,3.26795652 C63.970983,3.1373913 64.1440894,2.96521739 64.2753617,2.74569565 C64.4032681,2.52904348 64.4705872,2.28417391 64.4739532,2.01347826 C64.4705872,1.74278261 64.4037489,1.49743478 64.2753617,1.28126087 C64.1440894,1.06126087 63.970983,0.889565217 63.7502723,0.759 Z" id="Shape"></path>
                </g>
            </g>
        </g>
    </g>
</svg>