<?xml version="1.0" encoding="UTF-8"?>
<svg width="24px" height="18px" viewBox="0 0 24 18" version="1.1" xmlns="http://www.w3.org/2000/svg" xmlns:xlink="http://www.w3.org/1999/xlink">
    <!-- Generator: Sketch 47.1 (45422) - http://www.bohemiancoding.com/sketch -->
    <title>Youtube_Color</title>
    <desc>Created with Sketch.</desc>
    <defs></defs>
    <g id="Symbols" stroke="none" stroke-width="1" fill="none" fill-rule="evenodd">
        <g id="ic/Youtube" transform="translate(0.000000, -3.000000)" fill="#FFFFFF">
            <g id="Youtube">
                <path d="M23.4532174,7.42393922 C23.4532174,7.42393922 23.6869565,9.35720443 23.6869565,11.2897232 L23.6869565,13.102066 C23.6869565,15.0353312 23.4532174,16.96785 23.4532174,16.96785 C23.4532174,16.96785 23.2245913,18.6137379 22.5241043,19.3385258 C21.6351652,20.2902297 20.6388522,20.2947083 20.1823304,20.3506909 C16.9114435,20.5925357 12,20.6 12,20.6 C12,20.6 5.92278261,20.543271 4.05286957,20.3596481 C3.5328,20.2603723 2.36483478,20.2902297 1.47516522,19.3385258 C0.774678261,18.6137379 0.546782609,16.96785 0.546782609,16.96785 C0.546782609,16.96785 0.313043478,15.0353312 0.313043478,13.102066 L0.313043478,11.2897232 C0.313043478,9.35720443 0.546782609,7.42393922 0.546782609,7.42393922 C0.546782609,7.42393922 0.774678261,5.77805127 1.47516522,5.05326343 C2.36483478,4.10155951 3.36041739,4.09708091 3.81766957,4.04184476 C7.08855652,3.8 11.994887,3.8 11.994887,3.8 L12.005113,3.8 C12.005113,3.8 16.9114435,3.8 20.1823304,4.04184476 C20.6388522,4.09708091 21.6351652,4.10155951 22.5241043,5.05326343 C23.2245913,5.77805127 23.4532174,7.42393922 23.4532174,7.42393922 Z M9.80945599,15.4869565 L16.3826087,12.2113331 L9.80869565,8.91304348 L9.80945599,15.4869565 Z"></path>
            </g>
        </g>
    </g>
</svg>